PathFileType	4	(X/Y/Z)	C:/Users/opensim2020/Desktop/walking_exp_matlab/subject02_walking12_straight_04.trc																																																																																																																												
DataRate	CameraRate	NumFrames	NumMarkers	Units	OrigDataRate	OrigDataStartFrame	OrigNumFrames																																																																																																																								
100	100	4	42	mm	100	2086	125																																																																																																																								
Frame#	Time	LFHD			RFHD			LBHD			RBHD			C7			T10			CLAV			STRN			RBAK			LSHO			LUPA			LELB			LFRM			LWRA			LWRB			LFIN			RSHO			RUPA			RELB			RFRM			RWRA			RWRB			RFIN			LASI			RASI			LPSI			RPSI			LTHI			LKNE			LTIB			LANK			LHEE			LTOE			RTHI			RKNE			RTIB			RANK			RHEE			RTOE			*39			*40			*41		
		X1	Y1	Z1	X2	Y2	Z2	X3	Y3	Z3	X4	Y4	Z4	X5	Y5	Z5	X6	Y6	Z6	X7	Y7	Z7	X8	Y8	Z8	X9	Y9	Z9	X10	Y10	Z10	X11	Y11	Z11	X12	Y12	Z12	X13	Y13	Z13	X14	Y14	Z14	X15	Y15	Z15	X16	Y16	Z16	X17	Y17	Z17	X18	Y18	Z18	X19	Y19	Z19	X20	Y20	Z20	X21	Y21	Z21	X22	Y22	Z22	X23	Y23	Z23	X24	Y24	Z24	X25	Y25	Z25	X26	Y26	Z26	X27	Y27	Z27	X28	Y28	Z28	X29	Y29	Z29	X30	Y30	Z30	X31	Y31	Z31	X32	Y32	Z32	X33	Y33	Z33	X34	Y34	Z34	X35	Y35	Z35	X36	Y36	Z36	X37	Y37	Z37	X38	Y38	Z38	X39	Y39	Z39	X40	Y40	Z40	X41	Y41	Z41	X42	Y42	Z42
																																																																																																																															
94	0.93	527.22943	1727.77075	-1503.4342	497.87405	1703.94019	-1363.56848	395.60629	1665.03015	-1541.67212	354.56509	1640.91809	-1405.26892	317.53253	1519.72058	-1473.63757	272.14368	1238.78198	-1480.90784	455.56223	1451.32654	-1484.82739	513.42523	1282.38513	-1478.79224	260.75449	1338.26978	-1417.56433	385.85394	1498.25012	-1653.30969	353.06445	1300.56348	-1743.76575	336.32846	1162.22363	-1759.05945	329.61105	1032.40417	-1778.703	364.25046	898.16925	-1750.09753	323.2179	909.44055	-1788.1626	335.38568	844.4411	-1794.44971	387.06116	1478.23523	-1288.70947	374.73267	1285.32886	-1208.59509	415.80688	1142.28223	-1184.50659	490.66656	1044.79138	-1175.03406	589.25079	956.18573	-1204.21265	549.97266	929.07458	-1173.22961	612.15906	890.87256	-1175.86707	522.99768	994.32019	-1611.80493	499.36609	966.21667	-1355.83789	305.72336	1028.04407	-1552.80762	291.47934	1019.00476	-1440.21094	495.85898	681.38336	-1679.92761	489.90088	477.84888	-1651.30225	431.79175	291.78342	-1661.76245	421.98795	70.15267	-1629.7854	381.36377	42.62377	-1582.49854	578.11749	30.73969	-1632.91602	447.60199	656.50714	-1295.28687	472.66122	463.05637	-1305.81165	326.86111	356.38892	-1325.49255	192.39656	226.01959	-1378.25867	147.40543	199.59062	-1447.82385	247.56805	86.24229	-1327.87012	414.40161	1798.4939	-1431.96814	-2845.87915	1034.37	3356.97656	NaN	NaN	NaN
95	0.94	540.96027	1728.87732	-1502.42664	509.66562	1704.40601	-1363.56934	409.48752	1666.69458	-1541.10913	367.56668	1642.50696	-1405.22168	330.27963	1521.64136	-1474.17542	284.11597	1240.91785	-1482.55505	468.23889	1452.78552	-1484.59631	525.40845	1283.50867	-1478.9718	273.27182	1339.71326	-1418.69568	400.04028	1500.62244	-1653.35925	371.76999	1302.97144	-1745.62073	357.92059	1164.3938	-1762.58582	355.58954	1034.21057	-1782.56909	394.25241	901.43628	-1754.83594	352.78094	911.35577	-1792.73999	367.51337	847.28668	-1800.01453	399.0343	1479.37756	-1288.94275	385.88293	1286.40051	-1209.05994	424.75793	1142.85486	-1185.69983	496.53418	1043.67017	-1176.50415	592.89392	951.90588	-1205.54272	553.08612	926.24469	-1173.75867	614.04578	885.67737	-1177.2981	534.12384	994.927	-1612.39087	510.63739	969.08923	-1356.25439	317.27423	1030.09778	-1553.59729	302.96411	1021.12073	-1440.79553	501.95731	681.40057	-1679.9187	492.05978	477.86243	-1651.33887	431.78986	292.40997	-1661.48535	421.92535	70.34577	-1629.58569	381.24927	42.72951	-1582.6958	578.09363	30.70227	-1632.93127	465.61792	659.578	-1294.93481	495.15381	466.16492	-1307.17151	353.07254	354.45117	-1328.01318	223.98198	219.12662	-1381.86267	180.16106	190.10191	-1451.47937	285.7327	83.04999	-1330.32458	428.14212	1799.82886	-1431.22681	-2845.0835	1034.33838	3360.18726	NaN	NaN	NaN
96	0.95	554.61664	1729.79675	-1501.33582	522.6665	1705.09033	-1362.68481	422.9072	1668.32068	-1541.05957	380.57413	1643.75745	-1405.01001	343.46158	1523.29883	-1474.61926	296.1803	1242.75842	-1483.98718	480.88882	1454.00928	-1484.25977	537.55219	1284.47778	-1479.12805	285.37234	1341.28296	-1420.08374	414.20166	1502.77295	-1653.27563	390.65659	1305.06372	-1747.11694	379.67151	1166.51831	-1765.94678	381.57236	1036.27417	-1786.50696	424.63019	904.99042	-1759.44263	382.68967	913.4743	-1797.18799	400.04819	850.21899	-1805.07959	410.85849	1480.28772	-1289.1405	396.18015	1287.20325	-1209.77405	433.6478	1143.1853	-1186.72632	502.89499	1042.20068	-1177.23096	596.42834	947.65283	-1206.55212	556.24005	923.50226	-1174.26575	615.66718	880.5882	-1178.32056	543.96478	994.86517	-1612.80615	522.41876	971.55835	-1357.34631	328.711	1031.78528	-1553.96436	314.44675	1022.85754	-1440.89319	507.50452	680.88568	-1679.69299	493.47769	477.92896	-1651.55505	431.72351	292.87778	-1661.047	421.91537	70.52624	-1629.40149	381.34741	43.08495	-1582.16333	578.08563	30.69591	-1632.94543	483.49033	662.46161	-1294.32556	517.66846	468.91995	-1308.35718	379.46948	351.64078	-1330.43958	256.51813	211.14253	-1385.09387	213.99614	179.71365	-1454.82764	324.99005	79.00924	-1333.14893	441.71744	1800.94629	-1430.43335	-2845.95337	1034.29541	3357.07788	NaN	NaN	NaN
97	0.96	568.24683	1730.45703	-1500.1449	535.53516	1705.40686	-1361.69226	436.50629	1669.53564	-1540.62915	393.44205	1644.76709	-1404.90845	355.79099	1524.59998	-1475.46558	308.21152	1244.29968	-1485.1991	493.57184	1454.93896	-1483.86426	549.62622	1285.17798	-1479.10754	296.96823	1342.73914	-1421.50806	428.27878	1504.59875	-1653.00415	409.38019	1307.30518	-1748.72083	401.60782	1168.65479	-1769.28821	407.7757	1038.59595	-1790.36853	455.07047	908.7641	-1763.97229	413.03754	915.9198	-1801.61279	432.8486	853.14301	-1809.48633	422.88254	1480.86743	-1289.19287	407.20584	1287.85913	-1209.98608	442.49094	1143.50256	-1187.63135	509.03815	1040.93127	-1178.18433	599.52167	943.31604	-1207.43408	558.90601	920.61304	-1174.57556	616.93237	875.75037	-1179.11072	554.67426	995.32373	-1613.81885	534.57098	973.59583	-1358.94531	340.01614	1033.06287	-1553.89783	325.97824	1024.28894	-1440.52014	513.55133	680.63733	-1679.7301	495.12741	478.06799	-1651.81958	431.74005	293.293	-1660.66663	421.95331	70.65644	-1629.22815	381.40836	43.19737	-1581.99976	578.10266	30.63625	-1632.96228	501.21399	665.16272	-1293.4917	539.31927	471.42676	-1309.38147	406.21777	348.03854	-1332.3252	289.87344	202.34901	-1388.07312	248.94595	168.67004	-1457.72717	365.22672	74.59531	-1335.96277	455.24326	1801.9447	-1429.64783	-2845.22461	1034.30103	3360.39526	NaN	NaN	NaN
